<svg width="100" height="100" viewBox="0 0 100 100" fill="none" xmlns="http://www.w3.org/2000/svg">
<path d="M83.1276 0.145752H44V11.0806C44 11.8978 44.8969 12.3958 45.5896 11.9624C47.8167 10.5692 50.5328 9.88794 53.4292 10.2562C58.8271 10.9426 63.1328 15.328 63.7208 20.7374C64.5016 27.9166 58.899 33.9885 51.8781 33.9885C49.5641 33.9885 47.4094 33.3234 45.5833 32.1796C44.8937 31.7478 44 32.252 44 33.0655V43.9999H54.9349C55.7521 43.9999 56.25 44.8968 55.8167 45.5895C54.4234 47.8161 53.7422 50.5322 54.1104 53.4286C54.7964 58.8265 59.1818 63.1322 64.5906 63.7208C71.7703 64.502 77.8427 58.8994 77.8427 51.878C77.8427 49.564 77.1776 47.4093 76.0339 45.5833C75.6021 44.8937 76.1063 43.9999 76.9198 43.9999H87.8542V4.87232C87.8547 2.2619 85.738 0.145752 83.1276 0.145752Z" fill="#9468A2"/>
<path d="M83.147 4.87232C83.147 3.13523 82.2994 1.59611 80.9953 0.645752H83.1283C85.4626 0.645752 87.3553 2.53811 87.3553 4.87232V43.4999H83.147V4.87232Z" fill="#703682" stroke="#854A97"/>
<path d="M77.843 51.8781C77.843 58.899 71.7706 64.5021 64.5909 63.7208C59.1816 63.1323 54.7967 58.8266 54.1107 53.4286C53.7425 50.5323 54.4238 47.8167 55.817 45.5896C56.2503 44.8969 55.7519 44 54.9352 44H44.0003V54.9349C44.0003 55.7521 43.1034 56.25 42.4107 55.8167C40.1842 54.4234 37.468 53.7422 34.5722 54.1104C29.1748 54.7964 24.8685 59.1807 24.28 64.5901C23.4982 71.7698 29.1014 77.8427 36.1227 77.8427C38.4368 77.8427 40.5915 77.1776 42.417 76.0339C43.1066 75.6021 44.0003 76.1063 44.0003 76.9198V87.8542H83.1279C85.7383 87.8542 87.855 85.738 87.855 83.1271V44H76.9206C76.1071 44 75.6024 44.8937 76.0347 45.5833C77.1779 47.4094 77.843 49.5641 77.843 51.8781Z" fill="#E6DFE6"/>
<path d="M82.6464 44V77.9193C82.6464 80.5297 80.5302 82.6464 77.9193 82.6464H44V87.8547H83.1276C85.738 87.8547 87.8547 85.7385 87.8547 83.1276V44H82.6464Z" fill="#DFD3DF"/>
<path d="M36.1221 77.8426C29.1007 77.8426 23.4976 71.7697 24.2794 64.59C24.8684 59.1812 29.1742 54.7963 34.5716 54.1103C37.4679 53.7421 40.1835 54.4234 42.4101 55.8166C43.1028 56.2499 43.9997 55.7515 43.9997 54.9348V43.9999H33.0648C32.2476 43.9999 31.7497 43.1031 32.183 42.4103C33.5762 40.1833 34.2575 37.4676 33.8893 34.5708C33.2028 29.1728 28.8179 24.8671 23.4085 24.2791C16.2294 23.4984 10.157 29.101 10.157 36.1218C10.157 38.4359 10.8221 40.5905 11.9658 42.4166C12.3976 43.1062 11.8934 43.9999 11.0799 43.9999H0.145508V83.1275C0.145508 85.7379 2.26165 87.8546 4.87207 87.8546H44.0002V76.9202C44.0002 76.1067 43.1064 75.602 42.4169 76.0343C40.5908 77.178 38.4361 77.8426 36.1221 77.8426Z" fill="#8A8826"/>
<path d="M44.0002 82.6458H4.87259C2.26217 82.6458 0.145508 80.5296 0.145508 77.9187V83.127C0.145508 85.7374 2.26165 87.8541 4.87259 87.8541H44.0002V76.9197V76.9187V82.6458Z" fill="#9C9A3C"/>
<path d="M53.4288 10.2562C50.532 9.88794 47.8163 10.5692 45.5893 11.9624C44.8966 12.3958 43.9997 11.8973 43.9997 11.0806V0.145752H4.87207C2.26165 0.145752 0.145508 2.2619 0.145508 4.87232V43.9999H11.0804C11.8976 43.9999 12.3955 43.103 11.9622 42.4103C10.5689 40.1838 9.88822 37.4687 10.2559 34.5723C10.9413 29.1749 15.3257 24.8687 20.7346 24.2791C27.9148 23.4968 33.9882 29.0999 33.9882 36.1218C33.9882 38.4359 33.3231 40.5905 32.1794 42.4166C31.7476 43.1062 32.2518 43.9999 33.0653 43.9999H43.9997V33.0655C43.9997 32.252 44.8934 31.7473 45.583 32.1796C47.4085 33.3234 49.5637 33.9885 51.8778 33.9885C58.8986 33.9885 64.5012 27.9166 63.7205 20.7374C63.1325 15.328 58.8268 10.9426 53.4288 10.2562Z" fill="#D99D02"/>
<path d="M3.27116 41.9165C2.69824 41.9165 2.22949 41.4478 2.22949 40.8748C2.22949 40.3019 2.69824 39.8332 3.27116 39.8332C3.84408 39.8332 4.31283 40.3019 4.31283 40.8748C4.31283 41.4478 3.84408 41.9165 3.27116 41.9165ZM3.27116 37.7498C2.69824 37.7498 2.22949 37.2811 2.22949 36.7082V4.86963C2.22949 3.4165 3.41699 2.229 4.87533 2.229H40.8753C41.4482 2.229 41.917 2.69775 41.917 3.27067C41.917 3.84359 41.4482 4.31234 40.8753 4.31234H4.87533C4.56283 4.31234 4.31283 4.56234 4.31283 4.86963V36.703C4.31283 36.703 4.31283 36.703 4.31283 36.7082C4.31283 37.2811 3.84408 37.7498 3.27116 37.7498Z" fill="#E0B139"/>
<path d="M76.0726 99.6276C88.6141 99.6276 98.7809 89.4607 98.7809 76.9193C98.7809 64.3778 88.6141 54.2109 76.0726 54.2109C63.5311 54.2109 53.3643 64.3778 53.3643 76.9193C53.3643 89.4607 63.5311 99.6276 76.0726 99.6276Z" fill="#C9BAD1"/>
<path d="M89.3142 58.4692C91.9944 62.1968 93.5731 66.7692 93.5731 71.7109C93.5731 84.2526 83.4059 94.4192 70.8647 94.4192C65.9236 94.4192 61.3507 92.8406 57.623 90.1604C61.7449 95.8937 68.4725 99.6276 76.073 99.6276C88.6147 99.6276 98.7814 89.4604 98.7814 76.9192C98.7814 69.3192 95.0475 62.5911 89.3142 58.4692Z" fill="#C2B3C9"/>
<path d="M90.7745 59.6125C94.1432 63.574 96.1766 68.7073 96.1766 74.3152C96.1766 86.8568 86.0094 97.0235 73.4682 97.0235C67.8604 97.0235 62.7276 94.9907 58.7656 91.6219C62.9307 96.5204 69.1385 99.6277 76.0724 99.6277C88.6141 99.6277 98.7807 89.4605 98.7807 76.9193C98.7807 69.9855 95.6729 63.7782 90.7745 59.6125Z" fill="#BBABC3"/>
<path d="M73.6131 87.8542C72.5943 87.8542 71.5761 87.4656 70.799 86.6885L62.9615 78.851C61.4074 77.2964 61.4074 74.7771 62.9615 73.2224C64.5162 71.6688 67.0355 71.6688 68.5902 73.2224L73.6136 78.2458L83.5824 68.2766C85.137 66.7229 87.6563 66.7229 89.211 68.2766C90.7652 69.8312 90.7652 72.3505 89.211 73.9052L76.4282 86.688C75.6501 87.4656 74.6318 87.8542 73.6131 87.8542Z" fill="#ED6A6A"/>
<path d="M89.2104 68.2775C88.7406 67.8077 88.1823 67.4806 87.5896 67.2947C88.0182 68.6634 87.6906 70.2171 86.6062 71.302L73.8234 84.0848C73.0464 84.8613 72.0281 85.2504 71.0094 85.2504C69.9906 85.2504 68.9724 84.8619 68.1953 84.0848L70.7995 86.6889C71.5766 87.4655 72.5948 87.8546 73.6135 87.8546C74.6323 87.8546 75.6505 87.466 76.4276 86.6889L89.2104 73.9061C90.7646 72.3514 90.7646 69.8322 89.2104 68.2775Z" fill="#D44A4A"/>
</svg>
