<svg width="100" height="100" viewBox="0 0 100 100" fill="none" xmlns="http://www.w3.org/2000/svg">
<g clip-path="url(#clip0_2150_67815)">
<path d="M50 90.1592C27.8558 90.1592 9.84082 72.1437 9.84082 50C9.84082 27.8562 27.8558 9.84082 50 9.84082C72.1442 9.84082 90.1592 27.8558 90.1592 50C90.1592 72.1442 72.1442 90.1592 50 90.1592ZM50 16.5075C31.5321 16.5075 16.5075 31.5325 16.5075 50C16.5075 68.4675 31.5325 83.4925 50 83.4925C68.4675 83.4925 83.4925 68.4675 83.4925 50C83.4925 31.5325 68.4679 16.5075 50 16.5075Z" fill="#A4A235"/>
<path d="M49.9995 13.1899C29.7024 13.1899 13.1895 29.7029 13.1895 49.9999C13.1895 70.297 29.7024 86.8099 49.9995 86.8099C70.2965 86.8099 86.8094 70.297 86.8094 49.9999C86.8094 29.7029 70.2965 13.1899 49.9995 13.1899ZM49.9995 83.4924C31.5315 83.4924 16.507 68.4674 16.507 49.9999C16.507 31.5324 31.5315 16.5074 49.9995 16.5074C68.4674 16.5074 83.492 31.5324 83.492 49.9999C83.492 68.4674 68.4674 83.4924 49.9995 83.4924Z" fill="#8A8826"/>
<path d="M49.9993 26.9486C48.1585 26.9486 46.666 25.4561 46.666 23.6153V3.66073C46.666 1.81989 48.1585 0.327393 49.9993 0.327393C51.8402 0.327393 53.3327 1.81989 53.3327 3.66073V23.6153C53.3327 25.4566 51.8402 26.9486 49.9993 26.9486Z" fill="#E3B352"/>
<path d="M49.9993 99.6725C48.1585 99.6725 46.666 98.18 46.666 96.3392V76.3846C46.666 74.5438 48.1585 73.0513 49.9993 73.0513C51.8402 73.0513 53.3327 74.5438 53.3327 76.3846V96.3392C53.3327 98.18 51.8402 99.6725 49.9993 99.6725Z" fill="#E3B352"/>
<path d="M96.3387 53.3332H76.3841C74.5433 53.3332 73.0508 51.8407 73.0508 49.9998C73.0508 48.159 74.5433 46.6665 76.3841 46.6665H96.3387C98.1795 46.6665 99.672 48.159 99.672 49.9998C99.672 51.8407 98.1795 53.3332 96.3387 53.3332Z" fill="#E3B352"/>
<path d="M23.6151 53.3332H3.66048C1.81965 53.3332 0.327148 51.8407 0.327148 49.9998C0.327148 48.159 1.81965 46.6665 3.66048 46.6665H23.6151C25.4559 46.6665 26.9484 48.159 26.9484 49.9998C26.9484 51.8407 25.4563 53.3332 23.6151 53.3332Z" fill="#E3B352"/>
<path d="M50 69.991C61.0409 69.991 69.9913 61.0407 69.9913 49.9998C69.9913 38.9589 61.0409 30.0085 50 30.0085C38.9592 30.0085 30.0088 38.9589 30.0088 49.9998C30.0088 61.0407 38.9592 69.991 50 69.991Z" fill="#AB7EB9"/>
<path d="M33.9331 57.7456C33.5998 57.7456 33.2998 57.5498 33.1665 57.2415C33.079 57.0373 33.0748 56.8123 33.1581 56.604C33.2415 56.3998 33.3998 56.2373 33.6036 56.1498C34.0161 55.9706 34.5202 56.1706 34.6998 56.5831C34.879 57.004 34.6873 57.4956 34.2619 57.679C34.1581 57.7248 34.0461 57.7456 33.9331 57.7456ZM32.9081 54.579C32.5206 54.579 32.179 54.304 32.1002 53.9248C31.8165 52.6415 31.6748 51.3206 31.6748 49.9998C31.6748 39.8956 39.8956 31.679 49.9998 31.6748C53.0081 31.6748 55.9915 32.4206 58.6248 33.8373C59.0327 34.054 59.1831 34.5581 58.9661 34.9623C58.7577 35.354 58.2327 35.5165 57.8411 35.304C55.4411 34.0206 52.7286 33.3415 49.9998 33.3415C45.5581 33.3415 41.379 35.079 38.2248 38.2248C35.0752 41.379 33.3419 45.5581 33.3419 49.9998C33.3419 51.1998 33.4715 52.3998 33.7252 53.5623V53.5665C33.8252 54.0165 33.5381 54.4623 33.0919 54.5581C33.0294 54.5706 32.9711 54.579 32.9081 54.579Z" fill="#854A97"/>
<path d="M61.8987 33.9343C64.365 37.2589 65.8246 41.3756 65.8246 45.8331C65.8246 56.8739 56.8742 65.8243 45.8333 65.8243C41.3758 65.8243 37.2592 64.3652 33.9346 61.8985C37.5771 66.8085 43.4171 69.991 50 69.991C61.0408 69.991 69.9912 61.0406 69.9912 49.9997C69.9912 43.4164 66.8092 37.5768 61.8987 33.9343Z" fill="#9A64AB"/>
<path d="M63.0563 34.8606C66.0797 38.3635 67.9084 42.9264 67.9084 47.9164C67.9084 58.9573 58.958 67.9077 47.9172 67.9077C42.9272 67.9077 38.3638 66.0793 34.8613 63.0556C38.5272 67.3027 43.9501 69.991 50.0005 69.991C61.0413 69.991 69.9917 61.0406 69.9917 49.9998C69.9917 43.9489 67.3034 38.5264 63.0563 34.8606Z" fill="#854A97"/>
<path d="M51.0174 40.1245L52.9203 45.9816C53.0599 46.4107 53.4595 46.7011 53.9107 46.7011H59.697C60.8232 46.7011 61.2911 48.1424 60.3803 48.8041L55.699 52.2053C55.334 52.4703 55.1811 52.9407 55.3207 53.3699L57.2236 59.227C57.5353 60.1866 56.437 60.9845 55.6207 60.3916L50.7095 56.8232C50.302 56.5274 49.7503 56.5274 49.3428 56.8232L44.4315 60.3916C43.6153 60.9845 42.517 60.1866 42.8286 59.227L44.7315 53.3699C44.8711 52.9407 44.7182 52.4707 44.3532 52.2053L39.672 48.8041C38.7607 48.142 39.229 46.7011 40.3553 46.7011H46.1415C46.5928 46.7011 46.9928 46.4107 47.132 45.9816L49.0349 40.1245C49.3482 39.1649 50.7057 39.1649 51.0174 40.1245Z" fill="white"/>
<path d="M53.3333 23.6153V3.66073C53.3333 1.81989 51.8408 0.327393 50 0.327393V26.9486C51.8408 26.9486 53.3333 25.4566 53.3333 23.6153Z" fill="#D99D02"/>
<path d="M50.0264 73.0515V99.6723C51.8551 99.6582 53.333 98.1715 53.333 96.3394V76.3848C53.333 74.5523 51.8551 73.0657 50.0264 73.0515Z" fill="#D99D02"/>
<path d="M76.3841 53.3333H96.3387C98.1795 53.3333 99.672 51.8408 99.672 50H73.0508C73.0508 51.8408 74.5429 53.3333 76.3841 53.3333Z" fill="#D99D02"/>
<path d="M0.327148 49.9998C0.327148 51.8406 1.81965 53.3331 3.66048 53.3331H23.6151C25.4559 53.3331 26.9484 51.8406 26.9484 49.9998C26.9484 49.9081 26.9446 49.8173 26.9371 49.7273H0.338398C0.330898 49.8173 0.327148 49.9081 0.327148 49.9998Z" fill="#D99D02"/>
</g>
<defs>
<clipPath id="clip0_2150_67815">
<rect width="100" height="100" fill="white"/>
</clipPath>
</defs>
</svg>
