<svg width="1381" height="727" viewBox="0 0 1381 727" fill="none" xmlns="http://www.w3.org/2000/svg">
<g clip-path="url(#clip0_2460_7959)">
<g clip-path="url(#clip1_2460_7959)">
<mask id="mask0_2460_7959" style="mask-type:luminance" maskUnits="userSpaceOnUse" x="0" y="31" width="1381" height="864">
<path d="M0 31H1381V895H0V31Z" fill="white"/>
</mask>
<g mask="url(#mask0_2460_7959)">
<path d="M1093.14 556.046C1093.14 562.058 1088.27 566.936 1082.26 566.936C1076.25 566.936 1071.38 562.058 1071.38 556.046C1071.38 550.033 1076.25 545.156 1082.26 545.156C1088.27 545.156 1093.14 550.034 1093.14 556.046Z" fill="#D99D02" stroke="white" stroke-width="3"/>
<path d="M1157.94 513.954C1157.94 519.966 1153.07 524.844 1147.06 524.844C1141.05 524.844 1136.18 519.967 1136.18 513.954C1136.18 507.942 1141.05 503.064 1147.06 503.064C1153.07 503.064 1157.94 507.942 1157.94 513.954Z" fill="#D99D02" stroke="white" stroke-width="3"/>
<path d="M1119.88 443.074C1119.88 449.086 1115.01 453.964 1109 453.964C1102.99 453.964 1098.12 449.087 1098.12 443.074C1098.12 437.062 1102.99 432.184 1109 432.184C1115.01 432.184 1119.88 437.062 1119.88 443.074Z" fill="#D99D02" stroke="white" stroke-width="3"/>
<path d="M1133.57 466.469C1133.57 472.481 1128.7 477.359 1122.69 477.359C1116.68 477.359 1111.81 472.481 1111.81 466.469C1111.81 460.456 1116.68 455.579 1122.69 455.579C1128.7 455.579 1133.57 460.457 1133.57 466.469Z" fill="#D99D02" stroke="white" stroke-width="3"/>
<path d="M1109.2 482.166C1109.2 488.178 1104.33 493.056 1098.32 493.056C1092.31 493.056 1087.44 488.178 1087.44 482.166C1087.44 476.153 1092.31 471.276 1098.32 471.276C1104.33 471.276 1109.2 476.154 1109.2 482.166Z" fill="#D99D02" stroke="white" stroke-width="3"/>
<path d="M1168.63 535.349C1168.63 541.361 1163.76 546.239 1157.75 546.239C1151.74 546.239 1146.87 541.361 1146.87 535.349C1146.87 529.336 1151.74 524.459 1157.75 524.459C1163.76 524.459 1168.63 529.337 1168.63 535.349Z" fill="#D99D02" stroke="white" stroke-width="3"/>
<path d="M1136.59 556.743C1136.59 562.756 1131.71 567.633 1125.7 567.633C1119.69 567.633 1114.81 562.757 1114.81 556.743C1114.81 550.729 1119.69 545.853 1125.7 545.853C1131.71 545.853 1136.59 550.729 1136.59 556.743Z" fill="#D99D02" stroke="white" stroke-width="3"/>
<path d="M409.901 374.891C409.901 380.904 405.03 385.781 399.02 385.781C393.01 385.781 388.14 380.904 388.14 374.891C388.14 368.879 393.01 364.001 399.02 364.001C405.03 364.001 409.901 368.879 409.901 374.891Z" fill="#D99D02" stroke="white" stroke-width="3"/>
<path d="M666.37 342.8C666.37 348.812 661.5 353.69 655.49 353.69C649.48 353.69 644.609 348.812 644.609 342.8C644.609 336.788 649.48 331.91 655.49 331.91C661.5 331.91 666.37 336.788 666.37 342.8Z" fill="#D99D02" stroke="white" stroke-width="3"/>
<path d="M1072.45 535.349C1072.45 541.361 1067.58 546.239 1061.57 546.239C1055.56 546.239 1050.69 541.361 1050.69 535.349C1050.69 529.336 1055.56 524.459 1061.57 524.459C1067.58 524.459 1072.45 529.337 1072.45 535.349Z" fill="#D99D02" stroke="white" stroke-width="3"/>
<path d="M1093.82 588.834C1093.82 594.846 1088.96 599.724 1082.94 599.724C1076.94 599.724 1072.06 594.847 1072.06 588.834C1072.06 582.821 1076.94 577.944 1082.94 577.944C1088.96 577.944 1093.82 582.822 1093.82 588.834Z" fill="#D99D02" stroke="white" stroke-width="3"/>
<path d="M1083.14 503.257C1083.14 509.269 1078.27 514.147 1072.26 514.147C1066.25 514.147 1061.38 509.27 1061.38 503.257C1061.38 497.244 1066.25 492.367 1072.26 492.367C1078.27 492.367 1083.14 497.245 1083.14 503.257Z" fill="#D99D02" stroke="white" stroke-width="3"/>
<path d="M986.96 481.863C986.96 487.875 982.092 492.753 976.081 492.753C970.072 492.753 965.199 487.876 965.199 481.863C965.199 475.85 970.072 470.973 976.081 470.973C982.092 470.973 986.96 475.851 986.96 481.863Z" fill="#D99D02" stroke="white" stroke-width="3"/>
<path d="M1104.51 513.954C1104.51 519.966 1099.64 524.844 1093.63 524.844C1087.62 524.844 1082.75 519.967 1082.75 513.954C1082.75 507.942 1087.62 503.064 1093.63 503.064C1099.64 503.064 1104.51 507.942 1104.51 513.954Z" fill="#D99D02" stroke="white" stroke-width="3"/>
</g>
</g>
</g>
<defs>
<clipPath id="clip0_2460_7959">
<rect width="1381" height="727" fill="white"/>
</clipPath>
<clipPath id="clip1_2460_7959">
<rect width="1381" height="864" fill="white" transform="translate(0 31)"/>
</clipPath>
</defs>
</svg>
