<svg width="100" height="100" viewBox="0 0 100 100" fill="none" xmlns="http://www.w3.org/2000/svg">
<path d="M67.1921 20.4686H44.6836V4.72363H67.1921C68.4866 4.72363 69.5361 5.77313 69.5361 7.06763V18.1241C69.5366 19.4191 68.4871 20.4686 67.1921 20.4686Z" fill="#CB9F46"/>
<path d="M66.9763 4.82812H64.3203V13.2291C64.3203 14.5236 63.2708 15.5731 61.9763 15.5731H44.4678V20.5731H66.9763C68.2708 20.5731 69.3203 19.5236 69.3203 18.2291V7.17262C69.3208 5.87762 68.2713 4.82812 66.9763 4.82812Z" fill="#E0AC24"/>
<path d="M66.9763 4.82812H66.8203V15.7291C66.8203 17.0236 65.7708 18.0731 64.4763 18.0731H44.4678V20.5731H66.9763C68.2708 20.5731 69.3203 19.5236 69.3203 18.2291V7.17262C69.3208 5.87762 68.2713 4.82812 66.9763 4.82812Z" fill="#D99D02"/>
<path d="M45.437 29.4125H43.498V4.4695C43.498 3.934 43.932 3.5 44.4675 3.5C45.003 3.5 45.437 3.934 45.437 4.4695V29.4125Z" fill="#939598"/>
<path d="M56.2324 8.46486C55.5044 10.0444 54.2364 11.3124 52.6569 12.0404C52.2919 12.2054 52.1299 12.6354 52.2954 13.0004C52.3679 13.1609 52.4964 13.2894 52.6569 13.3619C54.2364 14.0894 55.5044 15.3574 56.2324 16.9369C56.3964 17.3024 56.8254 17.4659 57.1909 17.3019C57.3534 17.2289 57.4834 17.0989 57.5559 16.9369C58.2834 15.3569 59.5514 14.0894 61.1314 13.3619C61.4964 13.1969 61.6584 12.7669 61.4929 12.4019C61.4204 12.2414 61.2919 12.1129 61.1314 12.0404C59.5514 11.3129 58.2834 10.0449 57.5559 8.46486C57.3919 8.09936 56.9629 7.93585 56.5974 8.09985C56.4354 8.17235 56.3054 8.30236 56.2324 8.46486Z" fill="white"/>
<path d="M42.3717 29.7865L9.29974 93.523C8.49024 95.0835 9.62224 96.947 11.3802 96.947H77.5237C79.2817 96.947 80.4142 95.0835 79.6042 93.523L46.5332 29.7865C45.6582 28.1005 43.2467 28.1005 42.3717 29.7865Z" fill="#9468A2"/>
<path d="M79.6047 93.523L46.5332 29.7865C45.6582 28.1005 43.2467 28.1005 42.3717 29.7865L40.7497 32.9125L69.6052 88.5235C70.4147 90.084 69.2827 91.9475 67.5247 91.9475H10.1177L9.29968 93.5235C8.49018 95.084 9.62268 96.9475 11.3802 96.9475H77.5237C79.2822 96.947 80.4147 95.0835 79.6047 93.523Z" fill="#854A97"/>
<path d="M57.4423 50.8105L46.5333 29.7865C45.6583 28.1005 43.2468 28.1005 42.3718 29.7865L31.4648 50.8065L35.5693 55.36C36.5003 56.393 38.1208 56.393 39.0518 55.36L42.7143 51.297C43.6453 50.264 45.2658 50.264 46.1968 51.297L49.8593 55.36C50.7903 56.393 52.4108 56.393 53.3418 55.36L57.4423 50.8105Z" fill="#F6EFF6"/>
<path d="M42.372 29.7866L40.75 32.9126L52.6665 55.8791C53.1065 55.8416 57.048 51.1661 57.442 50.8106L46.533 29.7866C45.7295 28.1471 43.2255 28.0756 42.372 29.7866Z" fill="#EADCEA"/>
<path d="M6.9095 27.428C6.9085 27.366 6.907 27.304 6.907 27.2415C6.907 21.9765 11.175 17.7085 16.44 17.7085C21.705 17.7085 25.973 21.9765 25.973 27.2415C25.973 27.353 25.9705 27.464 25.9665 27.575C29.116 28.2985 31.465 31.119 31.465 34.488C31.465 38.405 28.2895 41.5805 24.3725 41.5805H7.5925C3.6755 41.5805 0.5 38.405 0.5 34.488C0.5 30.801 3.3125 27.7715 6.9095 27.428Z" fill="#EAF9FF"/>
<path d="M4.37964 38.0185C4.06964 38.0185 3.78464 37.8785 3.59464 37.6385C3.24964 37.2035 3.32464 36.5735 3.75964 36.2335C4.17964 35.8985 4.83464 35.9785 5.16464 36.3985C5.50464 36.8285 5.42964 37.4635 4.99964 37.8035C4.81964 37.9435 4.60464 38.0185 4.37964 38.0185ZM3.69464 34.2335C3.58964 34.2335 3.48964 34.2185 3.38964 34.1885C2.86464 34.0235 2.57464 33.4585 2.73964 32.9335C3.35464 30.9935 5.05964 29.6135 7.09464 29.4185L8.94464 29.2285L8.90964 27.2435C8.90964 23.0885 12.2896 19.7085 16.4396 19.7085C20.5946 19.7085 23.9696 23.0885 23.9746 27.2435C23.9746 27.7935 23.5246 28.2435 22.9746 28.2435C22.4246 28.2435 21.9746 27.7935 21.9746 27.2435C21.9696 24.1985 19.4846 21.7135 16.4396 21.7085C13.3996 21.7135 10.9146 24.1935 10.9096 27.2335V27.3385L10.9596 30.1135C10.9696 30.6285 10.5746 31.0735 10.0596 31.1285L7.28964 31.4085C6.05964 31.5285 5.01964 32.3635 4.64464 33.5385C4.51464 33.9535 4.12964 34.2335 3.69464 34.2335Z" fill="white"/>
<path d="M27.9809 28.3804C28.6064 29.4374 28.9654 30.6704 28.9654 31.9874C28.9654 35.9044 25.7899 39.0799 21.8729 39.0799H5.09285C3.77535 39.0799 2.54235 38.7209 1.48535 38.0949C2.72035 40.1809 4.99335 41.5799 7.59285 41.5799H24.3734C28.2904 41.5799 31.4659 38.4044 31.4659 34.4874C31.4659 31.8879 30.0669 29.6154 27.9809 28.3804Z" fill="#D3EFFB"/>
<path d="M75.3123 49.8045C75.3113 49.7425 75.3098 49.6805 75.3098 49.618C75.3098 44.353 79.5778 40.085 84.8428 40.085C90.1078 40.085 94.3758 44.353 94.3758 49.618C94.3758 49.7295 94.3733 49.8405 94.3693 49.9515C97.5188 50.675 99.8678 53.4955 99.8678 56.8645C99.8678 60.7815 96.6923 63.957 92.7753 63.957H75.9948C72.0778 63.957 68.9023 60.7815 68.9023 56.8645C68.9023 53.1775 71.7153 50.148 75.3123 49.8045Z" fill="#EAF9FF"/>
<path d="M96.3837 50.7568C97.0092 51.8138 97.3682 53.0468 97.3682 54.3638C97.3682 58.2808 94.1927 61.4563 90.2757 61.4563H73.4952C72.1777 61.4563 70.9447 61.0973 69.8877 60.4713C71.1227 62.5573 73.3957 63.9563 75.9952 63.9563H92.7757C96.6927 63.9563 99.8682 60.7808 99.8682 56.8638C99.8682 54.2643 98.4697 51.9918 96.3837 50.7568Z" fill="#D3EFFB"/>
</svg>
